<?xml version="1.0" standalone="no"?>
<!DOCTYPE svg PUBLIC "-//W3C//DTD SVG 20010904//EN"
 "http://www.w3.org/TR/2001/REC-SVG-20010904/DTD/svg10.dtd">
<svg version="1.0" xmlns="http://www.w3.org/2000/svg"
 width="971.000000pt" height="971.000000pt" viewBox="0 0 971.000000 971.000000"
 preserveAspectRatio="xMidYMid meet">
<metadata>
Created by potrace 1.11, written by Peter Selinger 2001-2013
</metadata>
<g transform="translate(0.000000,971.000000) scale(0.100000,-0.100000)"
fill="#000000" stroke="none">
<path d="M6455 9373 l-580 -335 0 -2857 c1 -1571 -1 -2863 -3 -2871 -2 -8
-112 -77 -245 -153 -133 -76 -332 -190 -442 -254 -110 -63 -219 -126 -243
-139 -23 -13 -53 -31 -65 -39 -21 -14 -29 -11 -127 46 -125 73 -351 204 -400
232 -19 11 -48 28 -65 38 -16 11 -36 22 -43 25 -8 4 -80 45 -160 92 -81 46
-163 93 -182 104 -70 39 -65 -9 -65 607 0 512 -1 559 -17 575 -10 9 -21 17
-25 18 -4 0 -17 6 -28 13 -11 7 -144 84 -295 170 -151 87 -291 167 -310 179
-19 11 -47 28 -62 36 -14 8 -118 68 -231 133 -196 113 -206 118 -229 104 -13
-9 -42 -26 -65 -39 -22 -12 -275 -158 -562 -323 l-521 -300 1 -1245 0 -1245
341 -195 c187 -107 384 -220 437 -251 87 -52 1035 -599 1106 -639 17 -9 176
-102 355 -205 179 -104 366 -211 415 -240 50 -28 214 -123 365 -210 151 -87
291 -168 310 -179 l36 -19 364 210 c201 116 570 328 820 473 250 144 511 295
580 335 69 40 141 82 160 92 19 11 197 114 395 229 198 114 513 297 700 405
l340 196 3 3544 3 3544 -584 338 c-321 185 -588 337 -593 336 -5 0 -270 -151
-589 -336z"/>
</g>
</svg>
